2014001_C3_04_grf
version=1
nRows=21
nColumns=19
inDegrees=no
endheader
time	ground_force_1_vx	ground_force_1_vy	ground_force_1_vz	ground_force_1_px	ground_force_1_py	ground_force_1_pz	ground_force_1_mx	ground_force_1_my	ground_force_1_mz	ground_force_2_vx	ground_force_2_vy	ground_force_2_vz	ground_force_2_px	ground_force_2_py	ground_force_2_pz	ground_force_2_mx	ground_force_2_my	ground_force_2_mz
      0.44500000	     33.26675538	    543.00966859	      6.47169026	      0.09990009	     -0.00200000	      0.12298210	      0.00000000	      0.09618573	      0.00000000	      0.00000000	      0.00000000	      0.00000000	      0.00000000	      0.00000000	      0.00000000	      0.00000000	      0.00000000	      0.00000000
      0.44600000	     33.33364949	    543.62267256	      6.05773460	      0.09991725	     -0.00200000	      0.12289402	      0.00000000	      0.07715915	      0.00000000	      0.00000000	      0.00000000	      0.00000000	      0.00000000	      0.00000000	      0.00000000	      0.00000000	      0.00000000	      0.00000000
      0.44700000	     33.40226728	    544.24521327	      5.64039615	      0.09993427	     -0.00200000	      0.12280820	     -0.00000000	      0.05817935	      0.00000000	      0.00000000	      0.00000000	      0.00000000	      0.00000000	      0.00000000	      0.00000000	      0.00000000	      0.00000000	      0.00000000
      0.44800000	     33.47225413	    544.87538338	      5.22027537	      0.09995111	     -0.00200000	      0.12272415	      0.00000000	      0.03923306	      0.00000000	      0.00000000	      0.00000000	      0.00000000	      0.00000000	      0.00000000	      0.00000000	      0.00000000	      0.00000000	      0.00000000
      0.44900000	     33.54394641	    545.51526904	      4.79656388	      0.09996772	     -0.00200000	      0.12264231	      0.00000000	      0.02032501	      0.00000000	      0.00000000	      0.00000000	      0.00000000	      0.00000000	      0.00000000	      0.00000000	      0.00000000	      0.00000000	      0.00000000
      0.45000000	     33.61700512	    546.16302252	      4.36987635	      0.09998410	     -0.00200000	      0.12256224	      0.00000000	      0.00144531	      0.00000000	      0.00000000	      0.00000000	      0.00000000	      0.00000000	      0.00000000	      0.00000000	      0.00000000	      0.00000000	      0.00000000
      0.45100000	     33.69177580	    546.82072997	      3.93932301	      0.10000014	     -0.00200000	      0.12248435	      0.00000000	     -0.01740274	      0.00000000	      0.00000000	      0.00000000	      0.00000000	      0.00000000	      0.00000000	      0.00000000	      0.00000000	      0.00000000	      0.00000000
      0.45200000	     33.76791552	    547.48648405	      3.50555545	      0.10001586	     -0.00200000	      0.12240818	      0.00000000	     -0.03623093	      0.00000000	      0.00000000	      0.00000000	      0.00000000	      0.00000000	      0.00000000	      0.00000000	      0.00000000	      0.00000000	      0.00000000
      0.45300000	     33.84577110	    548.16254973	      3.06760566	      0.10003118	     -0.00200000	      0.12233414	      0.00000000	     -0.05504276	     -0.00000000	      0.00000000	      0.00000000	      0.00000000	      0.00000000	      0.00000000	      0.00000000	      0.00000000	      0.00000000	      0.00000000
      0.45400000	     33.92500095	    548.84707928	      2.62617157	      0.10004611	     -0.00200000	      0.12226181	      0.00000000	     -0.07385021	      0.00000000	      0.00000000	      0.00000000	      0.00000000	      0.00000000	      0.00000000	      0.00000000	      0.00000000	      0.00000000	      0.00000000
      0.45500000	     34.00594797	    549.54245687	      2.18019332	      0.10006057	     -0.00200000	      0.12219157	      0.00000000	     -0.09266285	     -0.00000000	      0.00000000	      0.00000000	      0.00000000	      0.00000000	      0.00000000	      0.00000000	      0.00000000	      0.00000000	      0.00000000
      0.45600000	     34.08826143	    550.24671555	      1.73041609	      0.10007462	     -0.00200000	      0.12212299	      0.00000000	     -0.11148846	      0.00000000	      0.00000000	      0.00000000	      0.00000000	      0.00000000	      0.00000000	      0.00000000	      0.00000000	      0.00000000	      0.00000000
      0.45700000	     34.17228423	    550.96232891	      1.27566437	      0.10008808	     -0.00200000	      0.12205646	      0.00000000	     -0.13033893	      0.00000000	      0.00000000	      0.00000000	      0.00000000	      0.00000000	      0.00000000	      0.00000000	      0.00000000	      0.00000000	      0.00000000
      0.45800000	     34.25767347	    551.68741941	      0.81673724	      0.10010108	     -0.00200000	      0.12199158	      0.00000000	     -0.14921622	      0.00000000	      0.00000000	      0.00000000	      0.00000000	      0.00000000	      0.00000000	      0.00000000	      0.00000000	      0.00000000	      0.00000000
      0.45900000	     34.34477989	    552.42457986	      0.35233039	      0.10011344	     -0.00200000	      0.12192875	      0.00000000	     -0.16813015	      0.00000000	      0.00000000	      0.00000000	      0.00000000	      0.00000000	      0.00000000	      0.00000000	      0.00000000	      0.00000000	      0.00000000
      0.46000000	     34.43326317	    553.17181349	     -0.11667612	      0.10012530	     -0.00200000	      0.12186757	      0.00000000	     -0.18707892	      0.00000000	      0.00000000	      0.00000000	      0.00000000	      0.00000000	      0.00000000	      0.00000000	      0.00000000	      0.00000000	      0.00000000
      0.46100000	     34.52348318	    553.93195152	     -0.59171021	      0.10013650	     -0.00200000	      0.12180844	      0.00000000	     -0.20607357	      0.00000000	      0.00000000	      0.00000000	      0.00000000	      0.00000000	      0.00000000	      0.00000000	      0.00000000	      0.00000000	      0.00000000
      0.46200000	     34.61510353	    554.70287800	     -1.07179163	      0.10014718	     -0.00200000	      0.12175097	      0.00000000	     -0.22510957	      0.00000000	      0.00000000	      0.00000000	      0.00000000	      0.00000000	      0.00000000	      0.00000000	      0.00000000	      0.00000000	      0.00000000
      0.46300000	     34.70850103	    555.48769236	     -1.55846338	      0.10015722	     -0.00200000	      0.12169557	      0.00000000	     -0.24420244	      0.00000000	      0.00000000	      0.00000000	      0.00000000	      0.00000000	      0.00000000	      0.00000000	      0.00000000	      0.00000000	      0.00000000
      0.46400000	     34.80334841	    556.28401041	     -2.05063261	      0.10016674	     -0.00200000	      0.12164182	      0.00000000	     -0.26334553	      0.00000000	      0.00000000	      0.00000000	      0.00000000	      0.00000000	      0.00000000	      0.00000000	      0.00000000	      0.00000000	      0.00000000
      0.46500000	     34.90003683	    557.09517002	     -2.54995539	      0.10017559	     -0.00200000	      0.12159017	      0.00000000	     -0.28256008	      0.00000000	      0.00000000	      0.00000000	      0.00000000	      0.00000000	      0.00000000	      0.00000000	      0.00000000	      0.00000000	      0.00000000
